<svg width="41" height="41" viewBox="0 0 41 41" fill="none" xmlns="http://www.w3.org/2000/svg">
<path d="M35.2243 4.48242H5.76521C5.05675 4.48242 4.48438 5.05479 4.48438 5.76325V35.2224C4.48438 35.9308 5.05675 36.5032 5.76521 36.5032H35.2243C35.9328 36.5032 36.5052 35.9308 36.5052 35.2224V5.76325C36.5052 5.05479 35.9328 4.48242 35.2243 4.48242ZM31.5259 13.8285H28.9683C26.963 13.8285 26.5747 14.7811 26.5747 16.182V19.268H31.3618L30.7374 24.0991H26.5747V36.5032H21.5835V24.1032H17.4088V19.268H21.5835V15.7057C21.5835 11.571 24.1091 9.31756 27.7995 9.31756C29.5687 9.31756 31.0856 9.44965 31.5299 9.50968V13.8285H31.5259Z" fill="white"/>
</svg>
