<svg width="41" height="41" viewBox="0 0 41 41" fill="none" xmlns="http://www.w3.org/2000/svg">
<path d="M35.2243 4.48242H5.76521C5.05675 4.48242 4.48438 5.05479 4.48438 5.76325V35.2224C4.48438 35.9308 5.05675 36.5032 5.76521 36.5032H35.2243C35.9328 36.5032 36.5052 35.9308 36.5052 35.2224V5.76325C36.5052 5.05479 35.9328 4.48242 35.2243 4.48242ZM13.9825 31.7681H9.23146V16.4862H13.9825V31.7681ZM11.609 14.3969C11.0644 14.3969 10.5319 14.2353 10.0791 13.9328C9.62622 13.6302 9.27326 13.2001 9.06483 12.6969C8.8564 12.1937 8.80187 11.64 8.90812 11.1058C9.01438 10.5716 9.27665 10.081 9.66178 9.69585C10.0469 9.31072 10.5376 9.04845 11.0718 8.94219C11.6059 8.83594 12.1596 8.89047 12.6628 9.0989C13.166 9.30733 13.5961 9.66029 13.8987 10.1131C14.2013 10.566 14.3628 11.0984 14.3628 11.6431C14.3588 13.1641 13.126 14.3969 11.609 14.3969ZM31.7701 31.7681H27.023V24.3353C27.023 22.5622 26.991 20.2847 24.5534 20.2847C22.0838 20.2847 21.7035 22.2139 21.7035 24.2072V31.7681H16.9605V16.4862H21.5154V18.5756H21.5795C22.2119 17.3748 23.7609 16.106 26.0744 16.106C30.8855 16.106 31.7701 19.272 31.7701 23.3867V31.7681Z" fill="white"/>
</svg>
