<svg width="41" height="41" viewBox="0 0 41 41" fill="none" xmlns="http://www.w3.org/2000/svg">
<path d="M37.1455 10.1789C35.9207 10.7073 34.5878 11.0875 33.2149 11.2356C34.6403 10.3888 35.7077 9.05101 36.2168 7.47319C34.8793 8.26886 33.414 8.8268 31.886 9.12226C31.2474 8.43952 30.475 7.89562 29.617 7.52445C28.7589 7.15328 27.8337 6.9628 26.8988 6.96486C23.1163 6.96486 20.0744 10.0308 20.0744 13.7933C20.0744 14.3216 20.1384 14.85 20.2425 15.3583C14.5788 15.0621 9.52753 12.3564 6.16936 8.21367C5.55746 9.25881 5.2368 10.4488 5.24075 11.6599C5.24075 14.0294 6.44553 16.1188 8.28273 17.3476C7.20004 17.305 6.14271 17.0074 5.19672 16.479V16.5631C5.19672 19.8812 7.54225 22.631 10.6683 23.2634C10.0813 23.4159 9.47753 23.4939 8.87111 23.4956C8.42682 23.4956 8.00655 23.4516 7.58227 23.3915C8.44683 26.0973 10.9645 28.0626 13.9624 28.1266C11.6169 29.9638 8.67898 31.0445 5.48891 31.0445C4.91654 31.0445 4.3882 31.0245 3.83984 30.9604C6.86581 32.9017 10.4561 34.0224 14.3226 34.0224C26.8748 34.0224 33.7432 23.6237 33.7432 14.5978C33.7432 14.3016 33.7432 14.0054 33.7232 13.7092C35.0521 12.7366 36.2168 11.5318 37.1455 10.1789Z" fill="white"/>
</svg>
