<svg width="56" height="56" viewBox="0 0 56 56" fill="none" xmlns="http://www.w3.org/2000/svg">
<path d="M24.0807 48.5249C28.234 46.8916 27.324 42.3882 25.224 39.5416C23.1473 36.6249 20.2773 34.6182 17.384 32.6816C15.3196 31.3804 13.4763 29.7577 11.924 27.8749C11.2707 27.1049 9.94067 25.6816 11.294 25.4016C12.6707 25.1216 15.0507 26.4749 16.264 26.9882C18.3873 27.8749 20.4873 28.9016 22.4473 30.1149L24.804 26.1482C21.164 23.7449 16.4973 21.6216 12.1573 20.9916C9.684 20.6182 7.07067 21.1316 6.23067 23.8149C5.484 26.1249 6.674 28.4582 8.02733 30.2782C11.224 34.5482 16.194 36.6016 19.904 40.2882C20.6973 41.0582 21.654 41.9682 22.1207 43.0416C22.6107 44.0682 22.494 44.1382 21.3973 44.1382C18.504 44.1382 14.8873 41.8749 12.5307 40.3816L10.174 44.3482C13.744 46.5416 19.7173 49.9716 24.0807 48.5249ZM49.9573 12.1249C50.4707 11.6116 50.4707 10.7716 49.9573 10.2816L46.924 7.24825C46.6796 7.01271 46.3534 6.8811 46.014 6.8811C45.6746 6.8811 45.3484 7.01271 45.104 7.24825L42.724 9.62825L47.5773 14.4816L49.9573 12.1249ZM26.9973 25.3549V30.2082H31.8507L46.2007 15.8582L41.3473 11.0049L26.9973 25.3549Z" fill="#2091F9"/>
</svg>
